M48
;DRILL file {KiCad 0.201511091016+6303~30~ubuntu14.04.1-product} date Mon 09 Nov 2015 21:44:21 GMT
;FORMAT={-:-/ absolute / metric / decimal}
FMAT,2
METRIC,TZ
T1C0.400
T2C1.016
T3C1.300
T4C3.000
%
G90
G05
M71
T1
X145.225Y-91.948
X147.574Y-105.855
X150.05Y-97.727
X150.177Y-90.297
X150.241Y-105.918
X150.622Y-91.694
X151.257Y-101.028
X152.4Y-106.172
X153.797Y-109.029
X155.575Y-100.457
X155.702Y-93.726
X156.337Y-107.251
X158.877Y-107.251
X158.94Y-99.568
X159.576Y-101.536
X160.02Y-88.646
X160.719Y-89.09
T2
X140.97Y-103.505
X140.97Y-106.045
X140.97Y-108.585
X141.605Y-94.615
X141.605Y-97.79
X144.145Y-94.615
X144.145Y-97.79
X163.83Y-104.14
X163.83Y-106.68
X163.83Y-109.22
X163.83Y-111.76
X163.83Y-114.3
X163.83Y-116.84
T3
X142.24Y-123.19
X147.32Y-123.19
X152.4Y-123.19
X157.48Y-123.19
X162.56Y-123.19
T4
X144.78Y-112.545
X144.78Y-118.544
X149.479Y-115.545
T0
M30
