G04 #@! TF.FileFunction,Legend,Bot*
%FSLAX46Y46*%
G04 Gerber Fmt 4.6, Leading zero omitted, Abs format (unit mm)*
G04 Created by KiCad (PCBNEW 0.201511091016+6303~30~ubuntu14.04.1-product) date Mon 09 Nov 2015 21:44:19 GMT*
%MOMM*%
G01*
G04 APERTURE LIST*
%ADD10C,0.100000*%
%ADD11C,0.200000*%
%ADD12C,0.300000*%
%ADD13R,3.000000X3.000000*%
%ADD14C,3.000000*%
%ADD15R,2.032000X1.727200*%
%ADD16O,2.032000X1.727200*%
%ADD17R,2.032000X2.032000*%
%ADD18O,2.032000X2.032000*%
%ADD19C,4.000000*%
G04 APERTURE END LIST*
D10*
D11*
X149860000Y-119253000D02*
X149860000Y-124968000D01*
D12*
X147891428Y-120249143D02*
X146748571Y-120249143D01*
X147320000Y-120820571D02*
X147320000Y-119677714D01*
X142811428Y-120249143D02*
X141668571Y-120249143D01*
X152971428Y-120249143D02*
X151828571Y-120249143D01*
X157872857Y-120820571D02*
X157872857Y-119320571D01*
X157515714Y-119320571D01*
X157301429Y-119392000D01*
X157158571Y-119534857D01*
X157087143Y-119677714D01*
X157015714Y-119963429D01*
X157015714Y-120177714D01*
X157087143Y-120463429D01*
X157158571Y-120606286D01*
X157301429Y-120749143D01*
X157515714Y-120820571D01*
X157872857Y-120820571D01*
X163131428Y-120249143D02*
X161988571Y-120249143D01*
X162560000Y-120820571D02*
X162560000Y-119677714D01*
X162579343Y-85987771D02*
X162007914Y-85987771D01*
X162365057Y-85487771D02*
X162365057Y-86773486D01*
X162293629Y-86916343D01*
X162150771Y-86987771D01*
X162007914Y-86987771D01*
X161507914Y-86987771D02*
X161507914Y-85987771D01*
X161507914Y-85487771D02*
X161579343Y-85559200D01*
X161507914Y-85630629D01*
X161436486Y-85559200D01*
X161507914Y-85487771D01*
X161507914Y-85630629D01*
X160793628Y-86987771D02*
X160793628Y-85987771D01*
X160793628Y-86130629D02*
X160722200Y-86059200D01*
X160579342Y-85987771D01*
X160365057Y-85987771D01*
X160222200Y-86059200D01*
X160150771Y-86202057D01*
X160150771Y-86987771D01*
X160150771Y-86202057D02*
X160079342Y-86059200D01*
X159936485Y-85987771D01*
X159722200Y-85987771D01*
X159579342Y-86059200D01*
X159507914Y-86202057D01*
X159507914Y-86987771D01*
X158793628Y-86987771D02*
X158793628Y-85487771D01*
X158150771Y-86987771D02*
X158150771Y-86202057D01*
X158222200Y-86059200D01*
X158365057Y-85987771D01*
X158579342Y-85987771D01*
X158722200Y-86059200D01*
X158793628Y-86130629D01*
X156793628Y-86987771D02*
X156793628Y-86202057D01*
X156865057Y-86059200D01*
X157007914Y-85987771D01*
X157293628Y-85987771D01*
X157436485Y-86059200D01*
X156793628Y-86916343D02*
X156936485Y-86987771D01*
X157293628Y-86987771D01*
X157436485Y-86916343D01*
X157507914Y-86773486D01*
X157507914Y-86630629D01*
X157436485Y-86487771D01*
X157293628Y-86416343D01*
X156936485Y-86416343D01*
X156793628Y-86344914D01*
X156222199Y-85987771D02*
X155936485Y-86987771D01*
X155650771Y-86273486D01*
X155365056Y-86987771D01*
X155079342Y-85987771D01*
X153936485Y-86916343D02*
X154079342Y-86987771D01*
X154365056Y-86987771D01*
X154507913Y-86916343D01*
X154579342Y-86773486D01*
X154579342Y-86202057D01*
X154507913Y-86059200D01*
X154365056Y-85987771D01*
X154079342Y-85987771D01*
X153936485Y-86059200D01*
X153865056Y-86202057D01*
X153865056Y-86344914D01*
X154579342Y-86487771D01*
X153293628Y-86916343D02*
X153150771Y-86987771D01*
X152865056Y-86987771D01*
X152722199Y-86916343D01*
X152650771Y-86773486D01*
X152650771Y-86702057D01*
X152722199Y-86559200D01*
X152865056Y-86487771D01*
X153079342Y-86487771D01*
X153222199Y-86416343D01*
X153293628Y-86273486D01*
X153293628Y-86202057D01*
X153222199Y-86059200D01*
X153079342Y-85987771D01*
X152865056Y-85987771D01*
X152722199Y-86059200D01*
X152007913Y-86844914D02*
X151936485Y-86916343D01*
X152007913Y-86987771D01*
X152079342Y-86916343D01*
X152007913Y-86844914D01*
X152007913Y-86987771D01*
X150650770Y-86916343D02*
X150793627Y-86987771D01*
X151079341Y-86987771D01*
X151222199Y-86916343D01*
X151293627Y-86844914D01*
X151365056Y-86702057D01*
X151365056Y-86273486D01*
X151293627Y-86130629D01*
X151222199Y-86059200D01*
X151079341Y-85987771D01*
X150793627Y-85987771D01*
X150650770Y-86059200D01*
X149793627Y-86987771D02*
X149936485Y-86916343D01*
X150007913Y-86844914D01*
X150079342Y-86702057D01*
X150079342Y-86273486D01*
X150007913Y-86130629D01*
X149936485Y-86059200D01*
X149793627Y-85987771D01*
X149579342Y-85987771D01*
X149436485Y-86059200D01*
X149365056Y-86130629D01*
X149293627Y-86273486D01*
X149293627Y-86702057D01*
X149365056Y-86844914D01*
X149436485Y-86916343D01*
X149579342Y-86987771D01*
X149793627Y-86987771D01*
X148650770Y-86987771D02*
X148650770Y-85987771D01*
X148650770Y-86130629D02*
X148579342Y-86059200D01*
X148436484Y-85987771D01*
X148222199Y-85987771D01*
X148079342Y-86059200D01*
X148007913Y-86202057D01*
X148007913Y-86987771D01*
X148007913Y-86202057D02*
X147936484Y-86059200D01*
X147793627Y-85987771D01*
X147579342Y-85987771D01*
X147436484Y-86059200D01*
X147365056Y-86202057D01*
X147365056Y-86987771D01*
X145579342Y-85416343D02*
X146865056Y-87344914D01*
X145079341Y-86987771D02*
X145079341Y-85487771D01*
X145079341Y-86059200D02*
X144936484Y-85987771D01*
X144650770Y-85987771D01*
X144507913Y-86059200D01*
X144436484Y-86130629D01*
X144365055Y-86273486D01*
X144365055Y-86702057D01*
X144436484Y-86844914D01*
X144507913Y-86916343D01*
X144650770Y-86987771D01*
X144936484Y-86987771D01*
X145079341Y-86916343D01*
X143722198Y-86987771D02*
X143722198Y-85987771D01*
X143722198Y-86273486D02*
X143650770Y-86130629D01*
X143579341Y-86059200D01*
X143436484Y-85987771D01*
X143293627Y-85987771D01*
X142007913Y-86987771D02*
X142865056Y-86987771D01*
X142436484Y-86987771D02*
X142436484Y-85487771D01*
X142579341Y-85702057D01*
X142722199Y-85844914D01*
X142865056Y-85916343D01*
%LPC*%
D13*
X142240000Y-123190000D03*
D14*
X147320000Y-123190000D03*
X152400000Y-123190000D03*
X157480000Y-123190000D03*
X162560000Y-123190000D03*
D15*
X163830000Y-104140000D03*
D16*
X163830000Y-106680000D03*
X163830000Y-109220000D03*
X163830000Y-111760000D03*
X163830000Y-114300000D03*
X163830000Y-116840000D03*
D15*
X140970000Y-103505000D03*
D16*
X140970000Y-106045000D03*
X140970000Y-108585000D03*
D17*
X141605000Y-94615000D03*
D18*
X144145000Y-94615000D03*
D17*
X141605000Y-97790000D03*
D18*
X144145000Y-97790000D03*
D19*
X144780000Y-112544860D03*
X144780000Y-118544340D03*
X149479000Y-115544600D03*
M02*
