G04 #@! TF.FileFunction,Copper,L1,Top,Signal*
%FSLAX46Y46*%
G04 Gerber Fmt 4.6, Leading zero omitted, Abs format (unit mm)*
G04 Created by KiCad (PCBNEW 0.201511091016+6303~30~ubuntu14.04.1-product) date Mon 09 Nov 2015 21:44:19 GMT*
%MOMM*%
G01*
G04 APERTURE LIST*
%ADD10C,0.100000*%
%ADD11R,1.000000X1.250000*%
%ADD12R,0.800000X0.750000*%
%ADD13R,0.750000X0.800000*%
%ADD14R,0.900000X0.500000*%
%ADD15R,0.600000X1.000000*%
%ADD16R,0.450000X1.000000*%
%ADD17R,3.657600X2.032000*%
%ADD18R,1.016000X2.032000*%
%ADD19R,3.000000X3.000000*%
%ADD20C,3.000000*%
%ADD21R,2.032000X1.727200*%
%ADD22O,2.032000X1.727200*%
%ADD23R,2.032000X2.032000*%
%ADD24O,2.032000X2.032000*%
%ADD25R,2.400000X1.100000*%
%ADD26O,2.400000X1.100000*%
%ADD27C,4.000000*%
%ADD28C,0.600000*%
%ADD29C,0.381000*%
%ADD30C,2.000000*%
%ADD31C,2.500000*%
%ADD32C,0.250000*%
%ADD33C,0.254000*%
G04 APERTURE END LIST*
D10*
D11*
X154321000Y-105727500D03*
X156321000Y-105727500D03*
X158639000Y-105727500D03*
X160639000Y-105727500D03*
D12*
X159460500Y-102806500D03*
X160960500Y-102806500D03*
X151943500Y-102806500D03*
X150443500Y-102806500D03*
D13*
X145237200Y-103874000D03*
X145237200Y-102374000D03*
D14*
X147320000Y-108700000D03*
X147320000Y-107200000D03*
X144780000Y-108700000D03*
X144780000Y-107200000D03*
X152400000Y-107200000D03*
X152400000Y-108700000D03*
X149860000Y-108700000D03*
X149860000Y-107200000D03*
D15*
X141025000Y-84668000D03*
X144725000Y-84668000D03*
X141025000Y-89068000D03*
X144725000Y-89068000D03*
D16*
X140350000Y-86868000D03*
X145400000Y-86868000D03*
D17*
X157480000Y-115697000D03*
D18*
X157480000Y-109093000D03*
X155194000Y-109093000D03*
X159766000Y-109093000D03*
D19*
X142240000Y-123190000D03*
D20*
X147320000Y-123190000D03*
X152400000Y-123190000D03*
X157480000Y-123190000D03*
X162560000Y-123190000D03*
D21*
X163830000Y-104140000D03*
D22*
X163830000Y-106680000D03*
X163830000Y-109220000D03*
X163830000Y-111760000D03*
X163830000Y-114300000D03*
X163830000Y-116840000D03*
D21*
X140970000Y-103505000D03*
D22*
X140970000Y-106045000D03*
X140970000Y-108585000D03*
D23*
X141605000Y-94615000D03*
D24*
X144145000Y-94615000D03*
D23*
X141605000Y-97790000D03*
D24*
X144145000Y-97790000D03*
D25*
X147828000Y-85725000D03*
D26*
X147828000Y-87725000D03*
X147828000Y-89725000D03*
X147828000Y-91725000D03*
X147828000Y-93725000D03*
X147828000Y-95725000D03*
X147828000Y-97725000D03*
X147828000Y-99725000D03*
X163828000Y-99725000D03*
X163828000Y-97725000D03*
X163828000Y-95725000D03*
X163828000Y-93725000D03*
X163828000Y-91725000D03*
X163828000Y-89725000D03*
X163828000Y-87725000D03*
X163828000Y-85725000D03*
D27*
X144780000Y-112544860D03*
X144780000Y-118544340D03*
X149479000Y-115544600D03*
D28*
X153797000Y-109029500D03*
X156337000Y-107251500D03*
X158877000Y-107251500D03*
X155575000Y-100457000D03*
X151257000Y-101028500D03*
X150622000Y-91694000D03*
X160718500Y-89090500D03*
X160020000Y-88646000D03*
X159575500Y-101536500D03*
X147574000Y-105854500D03*
X150177500Y-90297000D03*
X158940500Y-99568000D03*
X152400000Y-106172000D03*
X145224500Y-91948000D03*
X150050500Y-97726500D03*
X155702000Y-93726000D03*
X150241000Y-105918000D03*
D29*
X155194000Y-109093000D02*
X155194000Y-109220000D01*
X155194000Y-109220000D02*
X151765000Y-112649000D01*
D30*
X144780000Y-112544860D02*
X145437860Y-111887000D01*
X145437860Y-111887000D02*
X151003000Y-111887000D01*
X151003000Y-111887000D02*
X151765000Y-112649000D01*
X151765000Y-112649000D02*
X153035000Y-113919000D01*
X153035000Y-113919000D02*
X153035000Y-119507000D01*
X153035000Y-119507000D02*
X152654000Y-119888000D01*
D31*
X147320000Y-123190000D02*
X150622000Y-119888000D01*
X159258000Y-119888000D02*
X162560000Y-123190000D01*
X150622000Y-119888000D02*
X152654000Y-119888000D01*
X152654000Y-119888000D02*
X152908000Y-119888000D01*
X152908000Y-119888000D02*
X159258000Y-119888000D01*
D29*
X155194000Y-109093000D02*
X155194000Y-109479080D01*
X155194000Y-109093000D02*
X154321000Y-108220000D01*
X154321000Y-108220000D02*
X154321000Y-105727500D01*
D32*
X140970000Y-106045000D02*
X141566200Y-106045000D01*
X141566200Y-106045000D02*
X145237200Y-102374000D01*
D33*
X152400000Y-108700000D02*
X153467500Y-108700000D01*
X153467500Y-108700000D02*
X153797000Y-109029500D01*
X140970000Y-106045000D02*
X141363000Y-106045000D01*
D29*
X160960500Y-102806500D02*
X160960500Y-102592500D01*
X160960500Y-102592500D02*
X163828000Y-99725000D01*
D32*
X141025000Y-84668000D02*
X141025000Y-89068000D01*
X141025000Y-89068000D02*
X141605000Y-89648000D01*
X141605000Y-89648000D02*
X141605000Y-97790000D01*
D33*
X156321000Y-105727500D02*
X156321000Y-107235500D01*
X156321000Y-107235500D02*
X156337000Y-107251500D01*
D29*
X163830000Y-104140000D02*
X160960500Y-104140000D01*
D33*
X160960500Y-104140000D02*
X161036000Y-104140000D01*
X161036000Y-104140000D02*
X160960500Y-104140000D01*
X159766000Y-107315000D02*
X159702500Y-107251500D01*
D29*
X159702500Y-107251500D02*
X158877000Y-107251500D01*
X159766000Y-109093000D02*
X159766000Y-107315000D01*
X159766000Y-107315000D02*
X159766000Y-107251500D01*
X159766000Y-107251500D02*
X159766000Y-106600500D01*
X159766000Y-106600500D02*
X160960500Y-105406000D01*
X160960500Y-105406000D02*
X160960500Y-104140000D01*
X160960500Y-104140000D02*
X160960500Y-102806500D01*
D32*
X147828000Y-99725000D02*
X147828000Y-102158800D01*
X146112800Y-103874000D02*
X145237200Y-103874000D01*
X147828000Y-102158800D02*
X146112800Y-103874000D01*
X144780000Y-108700000D02*
X143701200Y-108700000D01*
X143433800Y-108432600D02*
X143433800Y-106121200D01*
X143701200Y-108700000D02*
X143433800Y-108432600D01*
X145237200Y-103874000D02*
X145237200Y-104317800D01*
X145237200Y-104317800D02*
X143433800Y-106121200D01*
X143433800Y-106121200D02*
X140970000Y-108585000D01*
D29*
X163830000Y-109220000D02*
X161798000Y-111252000D01*
X161798000Y-111252000D02*
X157480000Y-111252000D01*
X157480000Y-109093000D02*
X157480000Y-111252000D01*
X157480000Y-111252000D02*
X157480000Y-115697000D01*
X147828000Y-99725000D02*
X156379000Y-99725000D01*
X156379000Y-99725000D02*
X159460500Y-102806500D01*
X159460500Y-102806500D02*
X158639000Y-103628000D01*
X158639000Y-103628000D02*
X158639000Y-105727500D01*
X158639000Y-105727500D02*
X157480000Y-106886500D01*
X157480000Y-106886500D02*
X157480000Y-109093000D01*
D32*
X140970000Y-108585000D02*
X141085000Y-108700000D01*
X144780000Y-108700000D02*
X146101500Y-108700000D01*
X146101500Y-108700000D02*
X147320000Y-108700000D01*
X147320000Y-108700000D02*
X149860000Y-108700000D01*
D33*
X155575000Y-100457000D02*
X154293000Y-100457000D01*
X154293000Y-100457000D02*
X151943500Y-102806500D01*
X147828000Y-85725000D02*
X147193000Y-85725000D01*
X147193000Y-85725000D02*
X146177000Y-86741000D01*
X146177000Y-91186000D02*
X146716000Y-91725000D01*
X146177000Y-86741000D02*
X146177000Y-91186000D01*
X146716000Y-91725000D02*
X147828000Y-91725000D01*
X147828000Y-91725000D02*
X146908000Y-91725000D01*
X146908000Y-91725000D02*
X144145000Y-94488000D01*
X144145000Y-94488000D02*
X144145000Y-94615000D01*
X147828000Y-91725000D02*
X147035000Y-91725000D01*
X147828000Y-91725000D02*
X150591000Y-91725000D01*
X150443500Y-101842000D02*
X150443500Y-102806500D01*
X151257000Y-101028500D02*
X150443500Y-101842000D01*
X150591000Y-91725000D02*
X150622000Y-91694000D01*
X144780000Y-107200000D02*
X149173500Y-102806500D01*
X149173500Y-102806500D02*
X150443500Y-102806500D01*
D32*
X147828000Y-85725000D02*
X147066000Y-85725000D01*
X147035000Y-91725000D02*
X147828000Y-91725000D01*
D33*
X163828000Y-87725000D02*
X162084000Y-87725000D01*
X162084000Y-87725000D02*
X160718500Y-89090500D01*
X163828000Y-85725000D02*
X162941000Y-85725000D01*
X162941000Y-85725000D02*
X160020000Y-88646000D01*
X153764000Y-95725000D02*
X147828000Y-95725000D01*
X159575500Y-101536500D02*
X153764000Y-95725000D01*
X147828000Y-93725000D02*
X146559000Y-93725000D01*
X146559000Y-93725000D02*
X146177000Y-94107000D01*
X146177000Y-94107000D02*
X146177000Y-99631500D01*
X146177000Y-99631500D02*
X142303500Y-103505000D01*
X142303500Y-103505000D02*
X140970000Y-103505000D01*
X140970000Y-103505000D02*
X140970000Y-103505000D01*
X147828000Y-89725000D02*
X149605500Y-89725000D01*
X147320000Y-106108500D02*
X147320000Y-107200000D01*
X147574000Y-105854500D02*
X147320000Y-106108500D01*
X149605500Y-89725000D02*
X150177500Y-90297000D01*
X160783500Y-97725000D02*
X158940500Y-99568000D01*
X163098000Y-97725000D02*
X160783500Y-97725000D01*
X152400000Y-106172000D02*
X152400000Y-107200000D01*
X144725000Y-84668000D02*
X144725000Y-89068000D01*
X144725000Y-89068000D02*
X144725000Y-91448500D01*
X144725000Y-91448500D02*
X145224500Y-91948000D01*
X150050500Y-97726500D02*
X150049000Y-97725000D01*
X150049000Y-97725000D02*
X147828000Y-97725000D01*
X149860000Y-107200000D02*
X149860000Y-106299000D01*
X155702000Y-93725000D02*
X155701000Y-93725000D01*
X155702000Y-93726000D02*
X155702000Y-93725000D01*
X149860000Y-106299000D02*
X150241000Y-105918000D01*
X144145000Y-97790000D02*
X145669000Y-96266000D01*
X155701000Y-93725000D02*
X163828000Y-93725000D01*
X154686000Y-92710000D02*
X155701000Y-93725000D01*
X146748500Y-92710000D02*
X154686000Y-92710000D01*
X145669000Y-93789500D02*
X146748500Y-92710000D01*
X145669000Y-96266000D02*
X145669000Y-93789500D01*
G36*
X162306000Y-118110000D02*
X154559000Y-118110000D01*
X154559000Y-111050606D01*
X154865606Y-110744000D01*
X162306000Y-110744000D01*
X162306000Y-118110000D01*
X162306000Y-118110000D01*
G37*
X162306000Y-118110000D02*
X154559000Y-118110000D01*
X154559000Y-111050606D01*
X154865606Y-110744000D01*
X162306000Y-110744000D01*
X162306000Y-118110000D01*
M02*
