G04 #@! TF.FileFunction,Legend,Top*
%FSLAX46Y46*%
G04 Gerber Fmt 4.6, Leading zero omitted, Abs format (unit mm)*
G04 Created by KiCad (PCBNEW 0.201511091016+6303~30~ubuntu14.04.1-product) date Mon 09 Nov 2015 21:44:19 GMT*
%MOMM*%
G01*
G04 APERTURE LIST*
%ADD10C,0.100000*%
%ADD11C,0.152400*%
%ADD12C,0.150000*%
%ADD13R,1.000000X1.250000*%
%ADD14R,0.800000X0.750000*%
%ADD15R,0.750000X0.800000*%
%ADD16R,0.900000X0.500000*%
%ADD17R,0.600000X1.000000*%
%ADD18R,0.450000X1.000000*%
%ADD19R,3.657600X2.032000*%
%ADD20R,1.016000X2.032000*%
%ADD21R,3.000000X3.000000*%
%ADD22C,3.000000*%
%ADD23R,2.032000X1.727200*%
%ADD24O,2.032000X1.727200*%
%ADD25R,2.032000X2.032000*%
%ADD26O,2.032000X2.032000*%
%ADD27R,2.400000X1.100000*%
%ADD28O,2.400000X1.100000*%
%ADD29C,4.000000*%
G04 APERTURE END LIST*
D10*
D11*
X163210724Y-101574600D02*
X163133315Y-101535895D01*
X163017200Y-101535895D01*
X162901086Y-101574600D01*
X162823677Y-101652010D01*
X162784972Y-101729419D01*
X162746267Y-101884238D01*
X162746267Y-102000352D01*
X162784972Y-102155171D01*
X162823677Y-102232581D01*
X162901086Y-102309990D01*
X163017200Y-102348695D01*
X163094610Y-102348695D01*
X163210724Y-102309990D01*
X163249429Y-102271286D01*
X163249429Y-102000352D01*
X163094610Y-102000352D01*
X163597772Y-102348695D02*
X163597772Y-101535895D01*
X164062229Y-102348695D01*
X164062229Y-101535895D01*
X164449277Y-102348695D02*
X164449277Y-101535895D01*
X164642801Y-101535895D01*
X164758915Y-101574600D01*
X164836324Y-101652010D01*
X164875029Y-101729419D01*
X164913734Y-101884238D01*
X164913734Y-102000352D01*
X164875029Y-102155171D01*
X164836324Y-102232581D01*
X164758915Y-102309990D01*
X164642801Y-102348695D01*
X164449277Y-102348695D01*
D12*
X155821000Y-104877500D02*
X154821000Y-104877500D01*
X154821000Y-106577500D02*
X155821000Y-106577500D01*
X160139000Y-104877500D02*
X159139000Y-104877500D01*
X159139000Y-106577500D02*
X160139000Y-106577500D01*
X159860500Y-102206500D02*
X160560500Y-102206500D01*
X160560500Y-103406500D02*
X159860500Y-103406500D01*
X151543500Y-103406500D02*
X150843500Y-103406500D01*
X150843500Y-102206500D02*
X151543500Y-102206500D01*
X144637200Y-103474000D02*
X144637200Y-102774000D01*
X145837200Y-102774000D02*
X145837200Y-103474000D01*
X147995000Y-107450000D02*
X147995000Y-108450000D01*
X146645000Y-108450000D02*
X146645000Y-107450000D01*
X145455000Y-107450000D02*
X145455000Y-108450000D01*
X144105000Y-108450000D02*
X144105000Y-107450000D01*
X151725000Y-108450000D02*
X151725000Y-107450000D01*
X153075000Y-107450000D02*
X153075000Y-108450000D01*
X150535000Y-107450000D02*
X150535000Y-108450000D01*
X149185000Y-108450000D02*
X149185000Y-107450000D01*
X161036000Y-110871000D02*
X161036000Y-107823000D01*
X161036000Y-107823000D02*
X153924000Y-107823000D01*
X153924000Y-107823000D02*
X153924000Y-110871000D01*
X161036000Y-113919000D02*
X161036000Y-114681000D01*
X161036000Y-114681000D02*
X159512000Y-116967000D01*
X159512000Y-116967000D02*
X155448000Y-116967000D01*
X155448000Y-116967000D02*
X153924000Y-114681000D01*
X153924000Y-114681000D02*
X153924000Y-113919000D01*
X139700000Y-126238000D02*
X165100000Y-126238000D01*
X165100000Y-126238000D02*
X165100000Y-118618000D01*
X165100000Y-118618000D02*
X139700000Y-118618000D01*
X139700000Y-118618000D02*
X139700000Y-126238000D01*
X165100000Y-105410000D02*
X165100000Y-118110000D01*
X165100000Y-118110000D02*
X162560000Y-118110000D01*
X162560000Y-118110000D02*
X162560000Y-105410000D01*
X165380000Y-102590000D02*
X165380000Y-104140000D01*
X165100000Y-105410000D02*
X162560000Y-105410000D01*
X162280000Y-104140000D02*
X162280000Y-102590000D01*
X162280000Y-102590000D02*
X165380000Y-102590000D01*
X139700000Y-104775000D02*
X139700000Y-109855000D01*
X139700000Y-109855000D02*
X142240000Y-109855000D01*
X142240000Y-109855000D02*
X142240000Y-104775000D01*
X142520000Y-101955000D02*
X142520000Y-103505000D01*
X142240000Y-104775000D02*
X139700000Y-104775000D01*
X139420000Y-103505000D02*
X139420000Y-101955000D01*
X139420000Y-101955000D02*
X142520000Y-101955000D01*
X142875000Y-93345000D02*
X145415000Y-93345000D01*
X140055000Y-93065000D02*
X141605000Y-93065000D01*
X142875000Y-93345000D02*
X142875000Y-95885000D01*
X141605000Y-96165000D02*
X140055000Y-96165000D01*
X140055000Y-96165000D02*
X140055000Y-93065000D01*
X142875000Y-95885000D02*
X145415000Y-95885000D01*
X145415000Y-95885000D02*
X145415000Y-93345000D01*
X142875000Y-96520000D02*
X145415000Y-96520000D01*
X140055000Y-96240000D02*
X141605000Y-96240000D01*
X142875000Y-96520000D02*
X142875000Y-99060000D01*
X141605000Y-99340000D02*
X140055000Y-99340000D01*
X140055000Y-99340000D02*
X140055000Y-96240000D01*
X142875000Y-99060000D02*
X145415000Y-99060000D01*
X145415000Y-99060000D02*
X145415000Y-96520000D01*
X140279120Y-122745500D02*
X149280880Y-122745500D01*
X140279120Y-126245620D02*
X149280880Y-126245620D01*
X149280880Y-126245620D02*
X149280880Y-111744760D01*
X149280880Y-111744760D02*
X140279120Y-111744760D01*
X140279120Y-111744760D02*
X140279120Y-126245620D01*
D11*
X155185534Y-104531886D02*
X155146829Y-104570590D01*
X155030715Y-104609295D01*
X154953305Y-104609295D01*
X154837191Y-104570590D01*
X154759782Y-104493181D01*
X154721077Y-104415771D01*
X154682372Y-104260952D01*
X154682372Y-104144838D01*
X154721077Y-103990019D01*
X154759782Y-103912610D01*
X154837191Y-103835200D01*
X154953305Y-103796495D01*
X155030715Y-103796495D01*
X155146829Y-103835200D01*
X155185534Y-103873905D01*
X155959629Y-104609295D02*
X155495172Y-104609295D01*
X155727401Y-104609295D02*
X155727401Y-103796495D01*
X155649991Y-103912610D01*
X155572582Y-103990019D01*
X155495172Y-104028724D01*
X159503534Y-104531886D02*
X159464829Y-104570590D01*
X159348715Y-104609295D01*
X159271305Y-104609295D01*
X159155191Y-104570590D01*
X159077782Y-104493181D01*
X159039077Y-104415771D01*
X159000372Y-104260952D01*
X159000372Y-104144838D01*
X159039077Y-103990019D01*
X159077782Y-103912610D01*
X159155191Y-103835200D01*
X159271305Y-103796495D01*
X159348715Y-103796495D01*
X159464829Y-103835200D01*
X159503534Y-103873905D01*
X159813172Y-103873905D02*
X159851877Y-103835200D01*
X159929286Y-103796495D01*
X160122810Y-103796495D01*
X160200220Y-103835200D01*
X160238924Y-103873905D01*
X160277629Y-103951314D01*
X160277629Y-104028724D01*
X160238924Y-104144838D01*
X159774467Y-104609295D01*
X160277629Y-104609295D01*
X157801734Y-103109486D02*
X157763029Y-103148190D01*
X157646915Y-103186895D01*
X157569505Y-103186895D01*
X157453391Y-103148190D01*
X157375982Y-103070781D01*
X157337277Y-102993371D01*
X157298572Y-102838552D01*
X157298572Y-102722438D01*
X157337277Y-102567619D01*
X157375982Y-102490210D01*
X157453391Y-102412800D01*
X157569505Y-102374095D01*
X157646915Y-102374095D01*
X157763029Y-102412800D01*
X157801734Y-102451505D01*
X158072667Y-102374095D02*
X158575829Y-102374095D01*
X158304896Y-102683733D01*
X158421010Y-102683733D01*
X158498420Y-102722438D01*
X158537124Y-102761143D01*
X158575829Y-102838552D01*
X158575829Y-103032076D01*
X158537124Y-103109486D01*
X158498420Y-103148190D01*
X158421010Y-103186895D01*
X158188782Y-103186895D01*
X158111372Y-103148190D01*
X158072667Y-103109486D01*
X151045334Y-104404886D02*
X151006629Y-104443590D01*
X150890515Y-104482295D01*
X150813105Y-104482295D01*
X150696991Y-104443590D01*
X150619582Y-104366181D01*
X150580877Y-104288771D01*
X150542172Y-104133952D01*
X150542172Y-104017838D01*
X150580877Y-103863019D01*
X150619582Y-103785610D01*
X150696991Y-103708200D01*
X150813105Y-103669495D01*
X150890515Y-103669495D01*
X151006629Y-103708200D01*
X151045334Y-103746905D01*
X151742020Y-103940429D02*
X151742020Y-104482295D01*
X151548496Y-103630790D02*
X151354972Y-104211362D01*
X151858134Y-104211362D01*
X145101734Y-105446286D02*
X145063029Y-105484990D01*
X144946915Y-105523695D01*
X144869505Y-105523695D01*
X144753391Y-105484990D01*
X144675982Y-105407581D01*
X144637277Y-105330171D01*
X144598572Y-105175352D01*
X144598572Y-105059238D01*
X144637277Y-104904419D01*
X144675982Y-104827010D01*
X144753391Y-104749600D01*
X144869505Y-104710895D01*
X144946915Y-104710895D01*
X145063029Y-104749600D01*
X145101734Y-104788305D01*
X145837124Y-104710895D02*
X145450077Y-104710895D01*
X145411372Y-105097943D01*
X145450077Y-105059238D01*
X145527486Y-105020533D01*
X145721010Y-105020533D01*
X145798420Y-105059238D01*
X145837124Y-105097943D01*
X145875829Y-105175352D01*
X145875829Y-105368876D01*
X145837124Y-105446286D01*
X145798420Y-105484990D01*
X145721010Y-105523695D01*
X145527486Y-105523695D01*
X145450077Y-105484990D01*
X145411372Y-105446286D01*
X147184534Y-110222695D02*
X146913601Y-109835648D01*
X146720077Y-110222695D02*
X146720077Y-109409895D01*
X147029715Y-109409895D01*
X147107124Y-109448600D01*
X147145829Y-109487305D01*
X147184534Y-109564714D01*
X147184534Y-109680829D01*
X147145829Y-109758238D01*
X147107124Y-109796943D01*
X147029715Y-109835648D01*
X146720077Y-109835648D01*
X147958629Y-110222695D02*
X147494172Y-110222695D01*
X147726401Y-110222695D02*
X147726401Y-109409895D01*
X147648991Y-109526010D01*
X147571582Y-109603419D01*
X147494172Y-109642124D01*
X144644534Y-110222695D02*
X144373601Y-109835648D01*
X144180077Y-110222695D02*
X144180077Y-109409895D01*
X144489715Y-109409895D01*
X144567124Y-109448600D01*
X144605829Y-109487305D01*
X144644534Y-109564714D01*
X144644534Y-109680829D01*
X144605829Y-109758238D01*
X144567124Y-109796943D01*
X144489715Y-109835648D01*
X144180077Y-109835648D01*
X144954172Y-109487305D02*
X144992877Y-109448600D01*
X145070286Y-109409895D01*
X145263810Y-109409895D01*
X145341220Y-109448600D01*
X145379924Y-109487305D01*
X145418629Y-109564714D01*
X145418629Y-109642124D01*
X145379924Y-109758238D01*
X144915467Y-110222695D01*
X145418629Y-110222695D01*
X152264534Y-110222695D02*
X151993601Y-109835648D01*
X151800077Y-110222695D02*
X151800077Y-109409895D01*
X152109715Y-109409895D01*
X152187124Y-109448600D01*
X152225829Y-109487305D01*
X152264534Y-109564714D01*
X152264534Y-109680829D01*
X152225829Y-109758238D01*
X152187124Y-109796943D01*
X152109715Y-109835648D01*
X151800077Y-109835648D01*
X152535467Y-109409895D02*
X153038629Y-109409895D01*
X152767696Y-109719533D01*
X152883810Y-109719533D01*
X152961220Y-109758238D01*
X152999924Y-109796943D01*
X153038629Y-109874352D01*
X153038629Y-110067876D01*
X152999924Y-110145286D01*
X152961220Y-110183990D01*
X152883810Y-110222695D01*
X152651582Y-110222695D01*
X152574172Y-110183990D01*
X152535467Y-110145286D01*
X149724534Y-110222695D02*
X149453601Y-109835648D01*
X149260077Y-110222695D02*
X149260077Y-109409895D01*
X149569715Y-109409895D01*
X149647124Y-109448600D01*
X149685829Y-109487305D01*
X149724534Y-109564714D01*
X149724534Y-109680829D01*
X149685829Y-109758238D01*
X149647124Y-109796943D01*
X149569715Y-109835648D01*
X149260077Y-109835648D01*
X150421220Y-109680829D02*
X150421220Y-110222695D01*
X150227696Y-109371190D02*
X150034172Y-109951762D01*
X150537334Y-109951762D01*
X141791267Y-87196990D02*
X141907381Y-87235695D01*
X142100905Y-87235695D01*
X142178315Y-87196990D01*
X142217019Y-87158286D01*
X142255724Y-87080876D01*
X142255724Y-87003467D01*
X142217019Y-86926057D01*
X142178315Y-86887352D01*
X142100905Y-86848648D01*
X141946086Y-86809943D01*
X141868677Y-86771238D01*
X141829972Y-86732533D01*
X141791267Y-86655124D01*
X141791267Y-86577714D01*
X141829972Y-86500305D01*
X141868677Y-86461600D01*
X141946086Y-86422895D01*
X142139610Y-86422895D01*
X142255724Y-86461600D01*
X142526657Y-86422895D02*
X142720181Y-87235695D01*
X142875000Y-86655124D01*
X143029819Y-87235695D01*
X143223343Y-86422895D01*
X143958733Y-87235695D02*
X143494276Y-87235695D01*
X143726505Y-87235695D02*
X143726505Y-86422895D01*
X143649095Y-86539010D01*
X143571686Y-86616419D01*
X143494276Y-86655124D01*
X156860724Y-112711895D02*
X156860724Y-113369876D01*
X156899429Y-113447286D01*
X156938133Y-113485990D01*
X157015543Y-113524695D01*
X157170362Y-113524695D01*
X157247771Y-113485990D01*
X157286476Y-113447286D01*
X157325181Y-113369876D01*
X157325181Y-112711895D01*
X158137981Y-113524695D02*
X157673524Y-113524695D01*
X157905753Y-113524695D02*
X157905753Y-112711895D01*
X157828343Y-112828010D01*
X157750934Y-112905419D01*
X157673524Y-112944124D01*
X161866943Y-111283448D02*
X161866943Y-111554381D01*
X162292695Y-111554381D02*
X161479895Y-111554381D01*
X161479895Y-111167334D01*
X161479895Y-110973809D02*
X161479895Y-110509352D01*
X162292695Y-110741581D02*
X161479895Y-110741581D01*
X162292695Y-110238419D02*
X161479895Y-110238419D01*
X161479895Y-110044895D01*
X161518600Y-109928781D01*
X161596010Y-109851372D01*
X161673419Y-109812667D01*
X161828238Y-109773962D01*
X161944352Y-109773962D01*
X162099171Y-109812667D01*
X162176581Y-109851372D01*
X162253990Y-109928781D01*
X162292695Y-110044895D01*
X162292695Y-110238419D01*
X162292695Y-109425619D02*
X161479895Y-109425619D01*
X143344295Y-106375200D02*
X142531495Y-106375200D01*
X143344295Y-105523695D02*
X142957248Y-105794628D01*
X143344295Y-105988152D02*
X142531495Y-105988152D01*
X142531495Y-105678514D01*
X142570200Y-105601105D01*
X142608905Y-105562400D01*
X142686314Y-105523695D01*
X142802429Y-105523695D01*
X142879838Y-105562400D01*
X142918543Y-105601105D01*
X142957248Y-105678514D01*
X142957248Y-105988152D01*
X141745306Y-92696695D02*
X141474373Y-92309648D01*
X141280849Y-92696695D02*
X141280849Y-91883895D01*
X141590487Y-91883895D01*
X141667896Y-91922600D01*
X141706601Y-91961305D01*
X141745306Y-92038714D01*
X141745306Y-92154829D01*
X141706601Y-92232238D01*
X141667896Y-92270943D01*
X141590487Y-92309648D01*
X141280849Y-92309648D01*
X142093649Y-92270943D02*
X142364582Y-92270943D01*
X142480696Y-92696695D02*
X142093649Y-92696695D01*
X142093649Y-91883895D01*
X142480696Y-91883895D01*
X142790334Y-92657990D02*
X142906448Y-92696695D01*
X143099972Y-92696695D01*
X143177382Y-92657990D01*
X143216086Y-92619286D01*
X143254791Y-92541876D01*
X143254791Y-92464467D01*
X143216086Y-92387057D01*
X143177382Y-92348352D01*
X143099972Y-92309648D01*
X142945153Y-92270943D01*
X142867744Y-92232238D01*
X142829039Y-92193533D01*
X142790334Y-92116124D01*
X142790334Y-92038714D01*
X142829039Y-91961305D01*
X142867744Y-91922600D01*
X142945153Y-91883895D01*
X143138677Y-91883895D01*
X143254791Y-91922600D01*
X143603134Y-92270943D02*
X143874067Y-92270943D01*
X143990181Y-92696695D02*
X143603134Y-92696695D01*
X143603134Y-91883895D01*
X143990181Y-91883895D01*
X144222410Y-91883895D02*
X144686867Y-91883895D01*
X144454638Y-92696695D02*
X144454638Y-91883895D01*
X141423572Y-100545295D02*
X141423572Y-99732495D01*
X141733210Y-99732495D01*
X141810619Y-99771200D01*
X141849324Y-99809905D01*
X141888029Y-99887314D01*
X141888029Y-100003429D01*
X141849324Y-100080838D01*
X141810619Y-100119543D01*
X141733210Y-100158248D01*
X141423572Y-100158248D01*
X142700829Y-100545295D02*
X142429896Y-100158248D01*
X142236372Y-100545295D02*
X142236372Y-99732495D01*
X142546010Y-99732495D01*
X142623419Y-99771200D01*
X142662124Y-99809905D01*
X142700829Y-99887314D01*
X142700829Y-100003429D01*
X142662124Y-100080838D01*
X142623419Y-100119543D01*
X142546010Y-100158248D01*
X142236372Y-100158248D01*
X143203991Y-99732495D02*
X143358810Y-99732495D01*
X143436219Y-99771200D01*
X143513629Y-99848610D01*
X143552334Y-100003429D01*
X143552334Y-100274362D01*
X143513629Y-100429181D01*
X143436219Y-100506590D01*
X143358810Y-100545295D01*
X143203991Y-100545295D01*
X143126581Y-100506590D01*
X143049172Y-100429181D01*
X143010467Y-100274362D01*
X143010467Y-100003429D01*
X143049172Y-99848610D01*
X143126581Y-99771200D01*
X143203991Y-99732495D01*
X144326429Y-99771200D02*
X144249020Y-99732495D01*
X144132905Y-99732495D01*
X144016791Y-99771200D01*
X143939382Y-99848610D01*
X143900677Y-99926019D01*
X143861972Y-100080838D01*
X143861972Y-100196952D01*
X143900677Y-100351771D01*
X143939382Y-100429181D01*
X144016791Y-100506590D01*
X144132905Y-100545295D01*
X144210315Y-100545295D01*
X144326429Y-100506590D01*
X144365134Y-100467886D01*
X144365134Y-100196952D01*
X144210315Y-100196952D01*
D12*
X155321095Y-88352381D02*
X155321095Y-89161905D01*
X155368714Y-89257143D01*
X155416333Y-89304762D01*
X155511571Y-89352381D01*
X155702048Y-89352381D01*
X155797286Y-89304762D01*
X155844905Y-89257143D01*
X155892524Y-89161905D01*
X155892524Y-88352381D01*
X156321095Y-88447619D02*
X156368714Y-88400000D01*
X156463952Y-88352381D01*
X156702048Y-88352381D01*
X156797286Y-88400000D01*
X156844905Y-88447619D01*
X156892524Y-88542857D01*
X156892524Y-88638095D01*
X156844905Y-88780952D01*
X156273476Y-89352381D01*
X156892524Y-89352381D01*
X153066095Y-86653571D02*
X153399429Y-86653571D01*
X153542286Y-87177381D02*
X153066095Y-87177381D01*
X153066095Y-86177381D01*
X153542286Y-86177381D01*
X153923238Y-87129762D02*
X154066095Y-87177381D01*
X154304191Y-87177381D01*
X154399429Y-87129762D01*
X154447048Y-87082143D01*
X154494667Y-86986905D01*
X154494667Y-86891667D01*
X154447048Y-86796429D01*
X154399429Y-86748810D01*
X154304191Y-86701190D01*
X154113714Y-86653571D01*
X154018476Y-86605952D01*
X153970857Y-86558333D01*
X153923238Y-86463095D01*
X153923238Y-86367857D01*
X153970857Y-86272619D01*
X154018476Y-86225000D01*
X154113714Y-86177381D01*
X154351810Y-86177381D01*
X154494667Y-86225000D01*
X154923238Y-87177381D02*
X154923238Y-86177381D01*
X155304191Y-86177381D01*
X155399429Y-86225000D01*
X155447048Y-86272619D01*
X155494667Y-86367857D01*
X155494667Y-86510714D01*
X155447048Y-86605952D01*
X155399429Y-86653571D01*
X155304191Y-86701190D01*
X154923238Y-86701190D01*
X155923238Y-86796429D02*
X156685143Y-86796429D01*
X157685143Y-87177381D02*
X157113714Y-87177381D01*
X157399428Y-87177381D02*
X157399428Y-86177381D01*
X157304190Y-86320238D01*
X157208952Y-86415476D01*
X157113714Y-86463095D01*
X158066095Y-86272619D02*
X158113714Y-86225000D01*
X158208952Y-86177381D01*
X158447048Y-86177381D01*
X158542286Y-86225000D01*
X158589905Y-86272619D01*
X158637524Y-86367857D01*
X158637524Y-86463095D01*
X158589905Y-86605952D01*
X158018476Y-87177381D01*
X158637524Y-87177381D01*
%LPC*%
D13*
X154321000Y-105727500D03*
X156321000Y-105727500D03*
X158639000Y-105727500D03*
X160639000Y-105727500D03*
D14*
X159460500Y-102806500D03*
X160960500Y-102806500D03*
X151943500Y-102806500D03*
X150443500Y-102806500D03*
D15*
X145237200Y-103874000D03*
X145237200Y-102374000D03*
D16*
X147320000Y-108700000D03*
X147320000Y-107200000D03*
X144780000Y-108700000D03*
X144780000Y-107200000D03*
X152400000Y-107200000D03*
X152400000Y-108700000D03*
X149860000Y-108700000D03*
X149860000Y-107200000D03*
D17*
X141025000Y-84668000D03*
X144725000Y-84668000D03*
X141025000Y-89068000D03*
X144725000Y-89068000D03*
D18*
X140350000Y-86868000D03*
X145400000Y-86868000D03*
D19*
X157480000Y-115697000D03*
D20*
X157480000Y-109093000D03*
X155194000Y-109093000D03*
X159766000Y-109093000D03*
D21*
X142240000Y-123190000D03*
D22*
X147320000Y-123190000D03*
X152400000Y-123190000D03*
X157480000Y-123190000D03*
X162560000Y-123190000D03*
D23*
X163830000Y-104140000D03*
D24*
X163830000Y-106680000D03*
X163830000Y-109220000D03*
X163830000Y-111760000D03*
X163830000Y-114300000D03*
X163830000Y-116840000D03*
D23*
X140970000Y-103505000D03*
D24*
X140970000Y-106045000D03*
X140970000Y-108585000D03*
D25*
X141605000Y-94615000D03*
D26*
X144145000Y-94615000D03*
D25*
X141605000Y-97790000D03*
D26*
X144145000Y-97790000D03*
D27*
X147828000Y-85725000D03*
D28*
X147828000Y-87725000D03*
X147828000Y-89725000D03*
X147828000Y-91725000D03*
X147828000Y-93725000D03*
X147828000Y-95725000D03*
X147828000Y-97725000D03*
X147828000Y-99725000D03*
X163828000Y-99725000D03*
X163828000Y-97725000D03*
X163828000Y-95725000D03*
X163828000Y-93725000D03*
X163828000Y-91725000D03*
X163828000Y-89725000D03*
X163828000Y-87725000D03*
X163828000Y-85725000D03*
D29*
X144780000Y-112544860D03*
X144780000Y-118544340D03*
X149479000Y-115544600D03*
M02*
